# xmcd
#
# Track frame offsets:
#	150
#	17176
#	31258
#	49518
#	67201
#	87390
#	101078
#	119992
#	136536
#	151351
#	168952
#	185173
#	199965
#	217834
#
# Disc length: 3120 seconds
#
# Revision: 1
# Processed by: cddbd v1.5.2PL0 Copyright (c) Steve Scherf et al.
# Submitted via: audiograbber 1.83.01
#
DISCID=c90c2e0e
DTITLE=Various Artist - SD076
DYEAR=1900
DGENRE=Country
TTITLE0=George Strait - Go On
TTITLE1=Terri Clark - A Little Gasoline
TTITLE2=Kenny Chesney - I Lost It
TTITLE3=Andy Griggs - Waitin' On Sundown
TTITLE4=Clay Walker - Once In A Lifetime
TTITLE5=Trace Adkins - TI'm Gonna Love You Anyway
TTITLE6=Eric Heatherly - Swimming In Champagne
TTITLE7=Daryle Singletary - I Knew I Loved You
TTITLE8=Rascall Flatts - This Everyday Love
TTITLE9=John Rich - I Pray For You
TTITLE10=Craig Morgan - Paradise
TTITLE11=Sawyer Brown - Perfect World
TTITLE12=Jamie O'Neal - There Is No Arizona
TTITLE13=John Michael Montgomery - The Little Girl
EXTD=
EXTT0=
EXTT1=
EXTT2=
EXTT3=
EXTT4=
EXTT5=
EXTT6=
EXTT7=
EXTT8=
EXTT9=
EXTT10=
EXTT11=
EXTT12=
EXTT13=
PLAYORDER=
